<?xml version="1.0" encoding="utf-8"?>
<!-- Generator: Adobe Illustrator 23.0.2, SVG Export Plug-In . SVG Version: 6.00 Build 0)  -->
<svg version="1.1" id="Layer_1" xmlns="http://www.w3.org/2000/svg" xmlns:xlink="http://www.w3.org/1999/xlink" x="0px" y="0px"
	 viewBox="0 0 989.7 497.6" style="enable-background:new 0 0 989.7 497.6;" xml:space="preserve">
<style type="text/css">
	.st0{fill:url(#SVGID_1_);}
	.st1{fill:url(#SVGID_2_);}
	.st2{fill:url(#SVGID_3_);}
	.st3{fill:url(#SVGID_4_);}
	.st4{fill:url(#SVGID_5_);}
	.st5{fill:url(#SVGID_6_);}
	.st6{fill:url(#SVGID_7_);}
	.st7{fill:url(#SVGID_8_);}
	.st8{fill:url(#SVGID_9_);}
	.st9{fill:url(#SVGID_10_);}
	.st10{fill:url(#SVGID_11_);}
	.st11{fill:url(#SVGID_12_);}
	.st12{fill:url(#SVGID_13_);}
	.st13{fill:url(#SVGID_14_);}
	.st14{fill:url(#SVGID_15_);}
	.st15{fill:url(#SVGID_16_);}
	.st16{fill:url(#SVGID_17_);}
	.st17{fill:url(#SVGID_18_);}
	.st18{fill:url(#SVGID_19_);}
	.st19{fill:url(#SVGID_20_);}
	.st20{fill:url(#SVGID_21_);}
	.st21{fill:url(#SVGID_22_);}
	.st22{fill:url(#SVGID_23_);}
	.st23{fill:url(#SVGID_24_);}
	.st24{fill:url(#SVGID_25_);}
	.st25{fill:url(#SVGID_26_);}
	.st26{fill:#303030;}
	.st27{fill:url(#SVGID_27_);}
</style>
<g>
	<g>
		<g>
			
				<linearGradient id="SVGID_1_" gradientUnits="userSpaceOnUse" x1="218.4" y1="490.4807" x2="307.2" y2="490.4807" gradientTransform="matrix(1 0 0 1 0 -310.2307)">
				<stop  offset="0" style="stop-color:#40EA88"/>
				<stop  offset="1" style="stop-color:#40B588"/>
			</linearGradient>
			<polygon class="st0" points="307.2,204.2 300.1,188.5 292.8,174.8 263.9,163 248.1,147.4 242.3,148.5 231.3,177.5 218.4,186.5 
				226.7,197.9 238,212.4 254.3,213.1 			"/>
			
				<linearGradient id="SVGID_2_" gradientUnits="userSpaceOnUse" x1="234.9" y1="636.5307" x2="309.275" y2="636.5307" gradientTransform="matrix(1 0 0 1 0 -310.2307)">
				<stop  offset="0" style="stop-color:#40EA88"/>
				<stop  offset="1" style="stop-color:#40B588"/>
			</linearGradient>
			<polygon class="st1" points="293.8,351.2 309.2,339.5 308.4,338.4 302.2,329.7 261.6,292.6 238.5,315.9 234.9,315.9 237.2,330.9 
				242.5,329.5 246.6,334.6 252,333.2 255.8,344.1 262,339.8 268.1,349.5 266.1,356.1 269.8,360 272.3,359.2 268.1,346.4 279,336.9 
							"/>
			
				<linearGradient id="SVGID_3_" gradientUnits="userSpaceOnUse" x1="246.2" y1="555.9307" x2="379" y2="555.9307" gradientTransform="matrix(1 0 0 1 0 -310.2307)">
				<stop  offset="0" style="stop-color:#40EA88"/>
				<stop  offset="1" style="stop-color:#40B588"/>
			</linearGradient>
			<polygon class="st2" points="333,267.6 350.3,280.5 379,229.6 326.9,213.2 320.9,207.9 310.7,208.1 257.1,217.2 258,236.4 
				246.2,255.2 278.2,271 290.3,272 314.7,276.9 325.1,283.5 325.5,283.3 318.6,276.2 329.4,273.7 			"/>
			
				<linearGradient id="SVGID_4_" gradientUnits="userSpaceOnUse" x1="183.4" y1="467.1807" x2="238" y2="467.1807" gradientTransform="matrix(1 0 0 1 0 -310.2307)">
				<stop  offset="0" style="stop-color:#40EA88"/>
				<stop  offset="1" style="stop-color:#40B588"/>
			</linearGradient>
			<polygon class="st3" points="209.3,122.6 197.4,153.5 183.4,172 183.4,188.2 194.6,191.3 205.6,182.9 214.6,183.7 227.6,174.6 
				238,147.1 215.8,126.9 			"/>
			
				<linearGradient id="SVGID_5_" gradientUnits="userSpaceOnUse" x1="264.8" y1="616.3307" x2="322.5" y2="616.3307" gradientTransform="matrix(1 0 0 1 0 -310.2307)">
				<stop  offset="0" style="stop-color:#40EA88"/>
				<stop  offset="1" style="stop-color:#40B588"/>
			</linearGradient>
			<polygon class="st4" points="303.8,307 311.6,294.4 312.4,286.3 315.4,282.7 313,281.2 289.5,276.4 278.5,275.5 264.8,289.4 
				305.6,326.7 312,335.8 312.8,336.7 322.5,329.3 307.1,318.8 311.9,312 			"/>
			
				<linearGradient id="SVGID_6_" gradientUnits="userSpaceOnUse" x1="198.5" y1="583.6807" x2="273.8" y2="583.6807" gradientTransform="matrix(1 0 0 1 0 -310.2307)">
				<stop  offset="0" style="stop-color:#40EA88"/>
				<stop  offset="1" style="stop-color:#40B588"/>
			</linearGradient>
			<polygon class="st5" points="219.2,278.8 231.8,293.1 234.2,311.4 236.7,311.4 273.8,273.8 241.8,258 202.8,235.5 198.5,240 
				213.3,259.3 210,276.5 			"/>
		</g>
		<g>
			
				<linearGradient id="SVGID_7_" gradientUnits="userSpaceOnUse" x1="199.5" y1="521.7307" x2="232.9" y2="521.7307" gradientTransform="matrix(1 0 0 1 0 -310.2307)">
				<stop  offset="0" style="stop-color:#40EA88"/>
				<stop  offset="1" style="stop-color:#40B588"/>
			</linearGradient>
			<polygon class="st6" points="203,220.3 232.9,213.2 224.7,202.7 214.5,212.8 199.5,216 199.6,217.5 			"/>
			
				<linearGradient id="SVGID_8_" gradientUnits="userSpaceOnUse" x1="163.2" y1="531.5307" x2="189.7" y2="531.5307" gradientTransform="matrix(1 0 0 1 0 -310.2307)">
				<stop  offset="0" style="stop-color:#40EA88"/>
				<stop  offset="1" style="stop-color:#40B588"/>
			</linearGradient>
			<polygon class="st7" points="165.3,205.1 163.2,206.2 163.6,220.1 171.5,234.4 170.6,234.9 173.8,236.1 178.6,237.5 182.4,233.4 
				189.7,233.7 177.7,208.3 177.9,205.5 			"/>
			
				<linearGradient id="SVGID_9_" gradientUnits="userSpaceOnUse" x1="198.8" y1="509.7807" x2="221.9" y2="509.7807" gradientTransform="matrix(1 0 0 1 0 -310.2307)">
				<stop  offset="0" style="stop-color:#40EA88"/>
				<stop  offset="1" style="stop-color:#40B588"/>
			</linearGradient>
			<polygon class="st8" points="214,188.2 206.9,187.6 198.8,193.8 199.4,211.5 212.3,208.7 221.9,199 			"/>
			
				<linearGradient id="SVGID_10_" gradientUnits="userSpaceOnUse" x1="204.7" y1="545.1807" x2="253.5" y2="545.1807" gradientTransform="matrix(1 0 0 1 0 -310.2307)">
				<stop  offset="0" style="stop-color:#40EA88"/>
				<stop  offset="1" style="stop-color:#40B588"/>
			</linearGradient>
			<polygon class="st9" points="253.5,235.2 252.6,217.5 237.1,216.8 204.7,224.5 204.7,231.4 242.2,253.1 			"/>
			
				<linearGradient id="SVGID_11_" gradientUnits="userSpaceOnUse" x1="182.3" y1="524.7307" x2="200.2" y2="524.7307" gradientTransform="matrix(1 0 0 1 0 -310.2307)">
				<stop  offset="0" style="stop-color:#40EA88"/>
				<stop  offset="1" style="stop-color:#40B588"/>
			</linearGradient>
			<polygon class="st10" points="182.3,207.4 195.9,236.2 200.2,231.7 200.2,223.8 195.1,219.7 194.4,195.9 183.3,192.8 			"/>
		</g>
		<g>
			
				<linearGradient id="SVGID_12_" gradientUnits="userSpaceOnUse" x1="297.3" y1="494.5807" x2="427.8" y2="494.5807" gradientTransform="matrix(1 0 0 1 0 -310.2307)">
				<stop  offset="0" style="stop-color:#40EA88"/>
				<stop  offset="1" style="stop-color:#40B588"/>
			</linearGradient>
			<polygon class="st11" points="330.3,144.9 297.3,173.6 304.1,186.6 311.9,203.6 322.5,203.4 329.2,209.2 382.1,225.9 
				395.9,217.7 402.7,216.8 417,201.9 425.7,201.2 427.8,199.3 427.2,186.1 409.2,155.2 380.6,160.9 369.1,148.3 362.7,153.3 
				355,149.4 352.3,154 333,142.8 			"/>
			
				<linearGradient id="SVGID_13_" gradientUnits="userSpaceOnUse" x1="99.2" y1="595.5807" x2="208.5" y2="595.5807" gradientTransform="matrix(1 0 0 1 0 -310.2307)">
				<stop  offset="0" style="stop-color:#40EA88"/>
				<stop  offset="1" style="stop-color:#40B588"/>
			</linearGradient>
			<polygon class="st12" points="109.6,332.4 126.4,332.8 131,326.5 136.5,326.5 148.1,299.7 159.8,301.5 163.4,312.6 175.2,316.2 
				179.2,328.4 185.3,329.1 193.9,292.1 205.3,277.2 208.5,260.5 192.4,239.3 191.7,237.9 191.7,238.2 184.3,238 179.9,242.6 
				172.4,240.4 167.9,238.7 162.3,238.9 158.9,245.7 154,243.7 151.1,246.6 141.7,244 139.7,249.7 128.7,248 128.1,254.5 
				117.1,257.6 111.3,251.1 102.5,256.7 114.8,274.7 115.2,290.7 106.8,290.7 99.2,296.1 109.9,303.7 107.7,331.6 			"/>
			
				<linearGradient id="SVGID_14_" gradientUnits="userSpaceOnUse" x1="157.6" y1="653.2307" x2="255.5" y2="653.2307" gradientTransform="matrix(1 0 0 1 0 -310.2307)">
				<stop  offset="0" style="stop-color:#40EA88"/>
				<stop  offset="1" style="stop-color:#40B588"/>
			</linearGradient>
			<polygon class="st13" points="251,401 255.5,390.1 250.1,381.1 243.2,358.7 237.6,348.7 233.1,334.3 230.3,315.9 230.3,315.9 
				227.6,295 216.8,282.8 208.3,280.7 198.1,294 188.5,335.2 179.8,380.3 167.6,396.1 158.3,399.1 157.6,399.7 160.7,402.6 
				164.1,401.1 165.2,405.3 175.2,402.6 184.7,405.3 186.6,401.5 192.7,403 195.4,392.7 203.4,395.7 207.6,393.1 204.2,384.3 
				227.9,374 239.3,396.1 250.8,401.1 			"/>
			
				<linearGradient id="SVGID_15_" gradientUnits="userSpaceOnUse" x1="238.1" y1="708.8307" x2="356.5" y2="708.8307" gradientTransform="matrix(1 0 0 1 0 -310.2307)">
				<stop  offset="0" style="stop-color:#40EA88"/>
				<stop  offset="1" style="stop-color:#40B588"/>
			</linearGradient>
			<polygon class="st14" points="337,385.8 330.2,390.8 325.1,386.1 324.9,381.3 317.9,372.7 324,370.7 319.1,362.2 324.2,357.6 
				312.1,342.9 293.5,357.2 278.8,343 273.3,347.8 277.9,362 268.6,365.2 261.1,357.4 263.2,350.2 260.7,346.2 253.5,351.1 
				249.2,338.6 244.9,339.7 240.9,334.6 238.1,335.3 241.7,346.9 247.3,356.9 254.2,379.3 260.5,389.7 254.8,403.8 247.3,409.6 
				243.1,417.5 290.9,462.6 302.3,453.4 334.4,447.7 349.7,426.7 356.5,407 			"/>
			
				<linearGradient id="SVGID_16_" gradientUnits="userSpaceOnUse" x1="357.2" y1="565.6307" x2="507.4" y2="565.6307" gradientTransform="matrix(1 0 0 1 0 -310.2307)">
				<stop  offset="0" style="stop-color:#40EA88"/>
				<stop  offset="1" style="stop-color:#40B588"/>
			</linearGradient>
			<polygon class="st15" points="502.8,271.6 501.6,248 486.4,228.9 485.6,208.6 493.6,201 491.7,190.3 431.2,202.2 427.6,205.5 
				419.1,206.3 404.8,221 397.4,222.1 384,229.9 357.2,277.5 363,280.9 370.7,282 395.2,299.8 399.1,296.1 411.9,300.6 418.7,313 
				432.6,315.6 439.5,319.6 450.1,320.5 459.3,299.9 470.3,286.9 485.2,285.8 505.8,280.4 507.4,275.8 			"/>
			
				<linearGradient id="SVGID_17_" gradientUnits="userSpaceOnUse" x1="310" y1="648.4307" x2="431.6" y2="648.4307" gradientTransform="matrix(1 0 0 1 0 -310.2307)">
				<stop  offset="0" style="stop-color:#40EA88"/>
				<stop  offset="1" style="stop-color:#40B588"/>
			</linearGradient>
			<polygon class="st16" points="431,319.9 415.8,317 408.8,304.3 400.2,301.2 395.5,305.6 369,286.3 361.5,285.3 355,281.4 
				351.7,287.2 334.4,274.2 332.3,277.7 327.4,278.8 332.7,284.4 324.9,288.8 319.2,285.1 316.7,288.1 316,295.8 310,305.6 
				318.3,310.7 313.4,317.7 330.1,329.1 315.7,340.2 330.4,358 324.8,363.1 330.6,373.4 325.5,375 329.3,379.6 329.5,384 
				330.5,384.9 337.5,379.7 358.2,402.2 362.3,390.4 373.3,377 378.3,380.5 387.1,369 378.3,359.5 392.1,342.3 396.6,344.6 
				397,338.8 400.5,338.8 400.5,345.7 409.2,349.9 419.2,335 425.3,335 431.6,320.3 			"/>
			
				<linearGradient id="SVGID_18_" gradientUnits="userSpaceOnUse" x1="78.9" y1="675.3307" x2="184.3" y2="675.3307" gradientTransform="matrix(1 0 0 1 0 -310.2307)">
				<stop  offset="0" style="stop-color:#40EA88"/>
				<stop  offset="1" style="stop-color:#40B588"/>
			</linearGradient>
			<polygon class="st17" points="156,395.1 164.9,392.3 175.6,378.4 184.1,334.3 184.3,333.5 175.8,332.6 171.6,319.8 159.9,316.3 
				156.4,305.5 150.8,304.7 139.4,331 133.3,331 128.6,337.4 108.7,336.8 103.3,334.6 85.4,352.2 92.7,383.5 81.6,386.6 78.9,392.7 
				83.5,407.2 83.5,416 90.4,425.5 109.9,409.1 153,397.8 			"/>
			
				<linearGradient id="SVGID_19_" gradientUnits="userSpaceOnUse" x1="210.8" y1="395.8807" x2="269.1244" y2="395.8807" gradientTransform="matrix(1 0 0 1 0 -310.2307)">
				<stop  offset="0" style="stop-color:#40EA88"/>
				<stop  offset="1" style="stop-color:#40B588"/>
			</linearGradient>
			<polygon class="st18" points="210.8,118.2 218.6,123.3 241.4,144.1 247,143 268.2,64.9 269.2,43.7 265.3,41 254.6,39.8 
				255.4,31.8 245.4,27.2 218.6,66.6 			"/>
			
				<linearGradient id="SVGID_20_" gradientUnits="userSpaceOnUse" x1="251.3" y1="418.7807" x2="335.1" y2="418.7807" gradientTransform="matrix(1 0 0 1 0 -310.2307)">
				<stop  offset="0" style="stop-color:#40EA88"/>
				<stop  offset="1" style="stop-color:#40B588"/>
			</linearGradient>
			<polygon class="st19" points="272.7,65.6 251.3,144.3 266.4,159.1 294,170.4 327.5,141.4 335.1,135.4 312.6,118.1 328.7,108.6 
				310,88.3 303.5,93.7 296.6,86.4 304.2,74.6 290.5,57.8 292.4,54.4 289.7,49.4 281.3,52.1 273.5,46.7 			"/>
			
				<linearGradient id="SVGID_21_" gradientUnits="userSpaceOnUse" x1="52.6" y1="518.3307" x2="166.4" y2="518.3307" gradientTransform="matrix(1 0 0 1 0 -310.2307)">
				<stop  offset="0" style="stop-color:#40EA88"/>
				<stop  offset="1" style="stop-color:#40B588"/>
			</linearGradient>
			<polygon class="st20" points="92.3,241.8 100,253 112.1,245.3 118.6,252.5 123.9,251 124.8,242.8 136.7,244.7 138.8,238.6 
				149.8,241.6 153,238.4 156.8,240 159.5,234.5 166.4,234.3 159.2,221.3 158.8,208.6 158.5,208.8 153.7,202.6 142.5,203.1 
				132.9,190.4 104.3,185.1 88,179.6 81.9,173.2 79.8,171.4 75.9,175.3 61.1,163.2 60.6,176.5 54.1,173.9 52.6,179.6 62.9,179.6 
				72.1,185.3 58.3,205.2 73.6,209.4 72.5,220.5 67.1,219.7 62.5,230.4 68.3,233.8 72.5,244.1 83.1,237.6 			"/>
			
				<linearGradient id="SVGID_22_" gradientUnits="userSpaceOnUse" x1="52.2" y1="453.9807" x2="178.9" y2="453.9807" gradientTransform="matrix(1 0 0 1 0 -310.2307)">
				<stop  offset="0" style="stop-color:#40EA88"/>
				<stop  offset="1" style="stop-color:#40B588"/>
			</linearGradient>
			<polygon class="st21" points="61.3,157.5 75.6,169.2 79.4,165.4 85.1,169.9 90.5,175.7 105.4,180.8 135.4,186.3 144.7,198.5 
				155.8,198 159.7,203 164.2,200.6 178.2,201 178.9,191.8 178.9,173.3 178.8,173.5 164.6,166.6 157.7,169.3 148.8,170.6 
				150.6,162.6 146.8,154.1 137.7,150.6 140.4,143 134,126.9 129.4,126 128.2,118.3 112.7,95.2 106.2,94.7 102.3,89.5 99.6,88 
				70.9,84.5 54.1,95.6 65.2,120.8 60.6,124.6 70.5,129.2 53.4,141.8 52.2,145.2 61.8,146 			"/>
			
				<linearGradient id="SVGID_23_" gradientUnits="userSpaceOnUse" x1="109.6" y1="411.6307" x2="217.6" y2="411.6307" gradientTransform="matrix(1 0 0 1 0 -310.2307)">
				<stop  offset="0" style="stop-color:#40EA88"/>
				<stop  offset="1" style="stop-color:#40B588"/>
			</linearGradient>
			<polygon class="st22" points="109.6,90.4 115.3,90.8 132.5,116.6 133.3,122.2 137.3,122.9 145.2,142.9 143.4,148 150.1,150.6 
				155.4,162.1 154.6,165.2 156.5,165 164.8,161.6 180,169.1 193.4,151.3 206.4,117.6 213.9,67.7 213.7,67.7 217.6,39.5 214.9,36.8 
				212.6,37.2 198.8,33.7 191.6,35.3 177.5,33.7 173.6,37.2 160.7,41.4 167.9,53.2 172.5,71.5 158.4,68.9 134.7,76.1 129.3,73.1 
				125.1,75.4 114.8,70.4 109.9,73.8 116.4,76.9 			"/>
		</g>
		<g>
			
				<linearGradient id="SVGID_24_" gradientUnits="userSpaceOnUse" x1="380.3" y1="689.5784" x2="380.3" y2="685.4269" gradientTransform="matrix(1 0 0 1 0 -310.2307)">
				<stop  offset="0" style="stop-color:#3D3C31"/>
				<stop  offset="1" style="stop-color:#5D412F"/>
			</linearGradient>
			<polygon class="st23" points="381.9,375.2 381.9,375.2 378.7,379.4 378.7,379.4 			"/>
			
				<linearGradient id="SVGID_25_" gradientUnits="userSpaceOnUse" x1="250.95" y1="739.0154" x2="250.95" y2="728.3315" gradientTransform="matrix(1 0 0 1 0 -310.2307)">
				<stop  offset="0" style="stop-color:#3D3C31"/>
				<stop  offset="1" style="stop-color:#5D412F"/>
			</linearGradient>
			<polygon class="st24" points="256.6,428.8 245.3,418.1 245.3,418.1 			"/>
			
				<linearGradient id="SVGID_26_" gradientUnits="userSpaceOnUse" x1="382.15" y1="673.35" x2="382.15" y2="659.9852" gradientTransform="matrix(1 0 0 1 0 -310.2307)">
				<stop  offset="0" style="stop-color:#3D3C31"/>
				<stop  offset="1" style="stop-color:#5D412F"/>
			</linearGradient>
			<polygon class="st25" points="378.7,358.4 385.6,349.8 378.7,358.4 383.1,363.1 			"/>
		</g>
	</g>
	<g>
		<path class="st26" d="M674.7,111.8c5.3,0,6.6,3.3,5,7.9l-82.4,213.1h72.8c3.3,0,5.3,1.7,5.3,5.3v32.8c0,3.3-2,5.3-5.3,5.6H541.4
			c-5.3,0-6.9-3.3-5-7.9l82.4-212.7h-68.5c-3.3,0-5.3-2-5.3-5.3v-33.1c0-3.6,2-5.3,5.3-5.6L674.7,111.8L674.7,111.8z"/>
		<path class="st26" d="M813.1,376.4c-4,0-6.3-1.7-7.6-5l-41.7-98.3l-12.2,23.5v73.1c0,4.3-2.3,6.6-6.6,6.6h-31.8
			c-4.3,0-6.6-2.3-6.6-6.6V118.4c0-4.3,2.3-6.6,6.6-6.6H745c4.3,0,6.6,2.3,6.6,6.6v102.5l50.9-104.2c1.7-3.3,4-5,7.6-5h34.7
			c5,0,6.9,3.3,4.6,7.9l-56.2,115.5l59.9,133.7c2.3,4.3,0.3,7.6-5,7.6H813.1L813.1,376.4z"/>
		
			<linearGradient id="SVGID_27_" gradientUnits="userSpaceOnUse" x1="902.5" y1="422.0307" x2="902.5" y2="686.6307" gradientTransform="matrix(1 0 0 1 0 -310.2307)">
			<stop  offset="0" style="stop-color:#40EA88"/>
			<stop  offset="1" style="stop-color:#40B588"/>
		</linearGradient>
		<path class="st27" d="M920.5,111.8c3.3,0,5.3,2,5.3,5.3l-2.3,180.3c0,3.3-2,5.3-5.3,5.3h-31.4c-3.6,0-5.3-2-5.3-5.3l-2.3-180.3
			c0-3.3,1.7-5.3,5.3-5.3L920.5,111.8L920.5,111.8z M880.8,339.4c0-4.3,2.3-6.6,6.6-6.6h30.1c4.3,0,6.6,2.3,6.6,6.6v30.4
			c0,4.3-2.3,6.6-6.6,6.6h-30.1c-4.3,0-6.6-2.3-6.6-6.6V339.4z"/>
	</g>
</g>
</svg>
